<?xml version="1.0" standalone="no"?>
<!DOCTYPE svg PUBLIC "-//W3C//DTD SVG 20010904//EN"
 "http://www.w3.org/TR/2001/REC-SVG-20010904/DTD/svg10.dtd">
<svg version="1.0" xmlns="http://www.w3.org/2000/svg"
 width="32.000000pt" height="32.000000pt" viewBox="0 0 32.000000 32.000000"
 preserveAspectRatio="xMidYMid meet">

<g transform="translate(0.000000,32.000000) scale(0.100000,-0.100000)"
fill="#000000" stroke="none">
<path d="M4 257 c-3 -8 -3 -56 -2 -108 l3 -94 155 0 155 0 0 105 c0 105 0 105
-25 107 -21 2 -22 1 -6 -5 16 -7 10 -16 -48 -68 -37 -32 -71 -59 -76 -59 -5 0
-39 27 -76 60 l-68 60 114 6 115 5 -118 2 c-90 2 -119 -1 -123 -11z m61 -57
l39 -40 -25 -27 -24 -27 29 22 c27 21 31 21 53 7 21 -14 25 -14 48 1 24 15 25
15 72 -30 l48 -46 -144 0 -144 0 19 23 c10 12 12 16 4 10 -26 -23 -30 -14 -30
67 0 44 4 80 8 80 4 0 25 -18 47 -40z m245 -40 c0 -44 -4 -80 -8 -80 -4 0 -26
18 -47 40 l-39 40 39 40 c21 22 43 40 47 40 4 0 8 -36 8 -80z"/>
</g>
</svg>
