<?xml version="1.0" standalone="no"?>
<!DOCTYPE svg PUBLIC "-//W3C//DTD SVG 20010904//EN"
 "http://www.w3.org/TR/2001/REC-SVG-20010904/DTD/svg10.dtd">
<svg version="1.0" xmlns="http://www.w3.org/2000/svg"
 width="32.000000pt" height="32.000000pt" viewBox="0 0 32.000000 32.000000"
 preserveAspectRatio="xMidYMid meet">

<g transform="translate(0.000000,32.000000) scale(0.100000,-0.100000)"
fill="#000000" stroke="none">
<path d="M12 308 c-17 -17 -17 -279 0 -296 17 -17 279 -17 296 0 17 17 17 279
0 296 -17 17 -279 17 -296 0z m273 -148 l0 -135 -35 0 -35 0 -3 53 c-3 47 -1
52 17 52 14 0 21 6 21 20 0 13 -7 20 -20 20 -28 0 -25 29 5 40 33 13 33 40 0
40 -30 0 -65 -32 -65 -59 0 -10 -9 -21 -20 -24 -26 -7 -26 -37 0 -37 18 0 20
-7 20 -55 l0 -56 -67 3 -68 3 -3 124 c-1 69 0 131 2 138 4 11 33 13 128 11
l123 -3 0 -135z"/>
</g>
</svg>
