<?xml version="1.0" standalone="no"?>
<!DOCTYPE svg PUBLIC "-//W3C//DTD SVG 20010904//EN"
 "http://www.w3.org/TR/2001/REC-SVG-20010904/DTD/svg10.dtd">
<svg version="1.0" xmlns="http://www.w3.org/2000/svg"
 width="32.000000pt" height="32.000000pt" viewBox="0 0 32.000000 32.000000"
 preserveAspectRatio="xMidYMid meet">

<g transform="translate(0.000000,32.000000) scale(0.100000,-0.100000)"
fill="#000000" stroke="none">
<path d="M70 301 c-13 -26 -13 -256 0 -282 9 -16 22 -19 90 -19 68 0 81 3 90
19 13 26 13 256 0 282 -9 16 -22 19 -90 19 -68 0 -81 -3 -90 -19z m168 -13 c3
-16 -6 -18 -77 -18 -61 0 -81 3 -81 13 0 24 13 28 84 25 58 -2 71 -6 74 -20z
m2 -128 l0 -100 -80 0 -80 0 0 100 0 100 80 0 80 0 0 -100z m-2 -127 c-3 -15
-15 -18 -78 -18 -63 0 -75 3 -78 18 -3 15 6 17 78 17 72 0 81 -2 78 -17z"/>
<path d="M148 283 c6 -2 18 -2 25 0 6 3 1 5 -13 5 -14 0 -19 -2 -12 -5z"/>
</g>
</svg>
