<?xml version="1.0" standalone="no"?>
<!DOCTYPE svg PUBLIC "-//W3C//DTD SVG 20010904//EN"
 "http://www.w3.org/TR/2001/REC-SVG-20010904/DTD/svg10.dtd">
<svg version="1.0" xmlns="http://www.w3.org/2000/svg"
 width="32.000000pt" height="32.000000pt" viewBox="0 0 32.000000 32.000000"
 preserveAspectRatio="xMidYMid meet">

<g transform="translate(0.000000,32.000000) scale(0.100000,-0.100000)"
fill="#000000" stroke="none">
<path d="M211 265 c-22 -24 -41 -53 -41 -64 0 -11 -4 -22 -9 -25 -12 -8 -34
21 -26 34 18 30 -72 98 -110 84 -45 -17 -15 -111 41 -128 16 -4 37 -13 48 -18
14 -7 24 -4 47 18 15 15 26 31 23 35 -3 5 16 31 42 59 26 27 42 50 37 50 -6 0
-29 -20 -52 -45z m-116 -1 c18 -12 25 -25 25 -48 0 -18 5 -37 12 -44 9 -9 9
-12 1 -12 -7 0 -14 4 -17 9 -3 4 -16 6 -29 4 -39 -8 -96 74 -70 100 12 12 53
7 78 -9z"/>
<path d="M244 258 l-29 -33 33 29 c17 17 32 31 32 33 0 8 -8 1 -36 -29z"/>
<path d="M260 245 c-19 -19 -29 -35 -24 -35 13 0 69 58 63 65 -3 2 -21 -11
-39 -30z"/>
<path d="M275 220 c-21 -22 -48 -40 -60 -40 -13 0 -44 -28 -89 -80 -37 -44
-72 -80 -77 -80 -24 0 -17 27 17 63 l39 41 -43 -33 c-43 -34 -55 -67 -26 -78
10 -4 33 12 68 46 l52 52 43 -51 c43 -52 74 -63 86 -32 5 12 -8 31 -49 69 -55
51 -58 63 -17 70 14 2 112 93 100 93 -3 0 -23 -18 -44 -40z m-41 -136 c36 -34
45 -49 37 -57 -8 -8 -22 -1 -52 28 -48 47 -66 75 -47 75 7 0 35 -21 62 -46z"/>
</g>
</svg>
