<?xml version="1.0" standalone="no"?>
<!DOCTYPE svg PUBLIC "-//W3C//DTD SVG 20010904//EN"
 "http://www.w3.org/TR/2001/REC-SVG-20010904/DTD/svg10.dtd">
<svg version="1.0" xmlns="http://www.w3.org/2000/svg"
 width="32.000000pt" height="32.000000pt" viewBox="0 0 32.000000 32.000000"
 preserveAspectRatio="xMidYMid meet">

<g transform="translate(0.000000,32.000000) scale(0.100000,-0.100000)"
fill="#000000" stroke="none">
<path d="M122 288 c-7 -7 -12 -21 -12 -31 0 -21 39 -97 50 -97 11 0 50 76 50
97 0 26 -19 43 -50 43 -14 0 -31 -5 -38 -12z m74 -13 c8 -20 -1 -55 -21 -80
l-15 -20 -15 20 c-38 49 -31 95 15 95 18 0 33 -6 36 -15z"/>
<path d="M146 272 c-2 -4 4 -8 14 -8 10 0 16 4 14 8 -3 4 -9 8 -14 8 -5 0 -11
-4 -14 -8z"/>
<path d="M50 208 c-19 -10 -26 -16 -15 -12 11 3 28 7 37 8 21 3 32 12 21 19
-4 3 -24 -4 -43 -15z"/>
<path d="M225 220 c-8 -13 9 -20 24 -11 10 6 9 10 -3 14 -8 3 -18 2 -21 -3z"/>
<path d="M277 199 c7 -7 15 -10 18 -7 3 3 -2 9 -12 12 -14 6 -15 5 -6 -5z"/>
<path d="M13 125 c0 -27 2 -38 4 -22 2 15 2 37 0 50 -2 12 -4 0 -4 -28z"/>
<path d="M72 118 c-2 -53 -5 -59 -31 -73 -27 -14 -30 -13 -34 3 -4 13 -5 11
-6 -5 -1 -27 1 -28 39 -8 22 11 35 12 56 5 15 -6 29 -8 32 -6 2 3 -7 8 -21 11
-24 6 -26 12 -30 68 l-3 62 -2 -57z"/>
<path d="M242 114 c-2 -58 -4 -62 -28 -68 -15 -4 -24 -9 -22 -12 3 -2 17 0 32
6 21 7 34 6 56 -5 38 -20 40 -19 39 8 -1 16 -2 18 -6 5 -4 -16 -7 -16 -33 -3
-26 13 -29 21 -33 72 l-3 58 -2 -61z"/>
<path d="M303 125 c0 -27 2 -38 4 -22 2 15 2 37 0 50 -2 12 -4 0 -4 -28z"/>
<path d="M148 23 c6 -2 18 -2 25 0 6 3 1 5 -13 5 -14 0 -19 -2 -12 -5z"/>
</g>
</svg>
